Coordinates
version=1
nRows=24
nColumns=24
inDegrees=yes

Units are S.I. units (second, meters, Newtons, ...)
Angles are in degrees.

endheader
time	pelvis_tilt	pelvis_list	pelvis_rotation	pelvis_tx	pelvis_ty	pelvis_tz	hip_flexion_r	hip_adduction_r	hip_rotation_r	knee_angle_r	ankle_angle_r	subtalar_angle_r	mtp_angle_r	hip_flexion_l	hip_adduction_l	hip_rotation_l	knee_angle_l	ankle_angle_l	subtalar_angle_l	mtp_angle_l	lumbar_extension	lumbar_bending	lumbar_rotation
      0.50000000	      7.55888246	      0.25553106	      0.11833353	      0.59365064	      1.03624672	     -0.02103997	     15.05448489	     -4.18376953	    -11.96065168	    -17.13902405	     -0.02131180	      0.00000080	      0.00000000	    -18.63497046	      3.36097528	      1.20058281	     -0.37798131	      7.22500644	      0.00000286	      0.00000000	    -25.41892598	     -1.77704926	     -6.02028118
      0.51700000	      7.49067530	      0.87867382	      0.17782101	      0.59246196	      1.03245087	     -0.02023213	     14.52094177	     -4.23752529	    -11.12606553	    -10.94439778	     -0.27601034	      0.00000116	      0.00000000	    -20.05393506	      3.89706730	      1.55268611	      0.31321778	      7.65232028	      0.00000274	      0.00000000	    -25.36776131	     -2.29038630	     -6.37654229
      0.53300000	      7.41421472	      1.51760066	      0.44622923	      0.59156242	      1.02832716	     -0.01971306	     14.01298809	     -4.47614755	     -9.94409467	     -5.50932347	     -0.14452502	      0.00000153	      0.00000000	    -21.36874702	      4.35969041	      2.14555552	      0.76825550	      8.17343179	      0.00000270	      0.00000000	    -25.27246970	     -2.73663360	     -6.57545732
      0.55000000	      7.35669514	      2.12075016	      0.32567319	      0.59116857	      1.02414217	     -0.01880180	     13.60368321	     -4.74600139	     -8.16748970	     -1.00952922	      0.19770102	      0.00000167	      0.00000000	    -22.72889463	      4.90851487	      2.39444264	      1.19623802	      8.63415729	      0.00000279	      0.00000000	    -25.16300703	     -3.15919327	     -6.66874257
      0.56700000	      7.33620275	      2.55840253	      0.28813689	      0.59036151	      1.02015334	     -0.01806762	     13.50893663	     -5.01560572	     -6.58055820	      1.87399703	      0.78396100	      0.00000156	      0.00000000	    -23.90362016	      5.25404921	      2.73051243	      1.20831492	      9.23770629	      0.00000285	      0.00000000	    -25.14235326	     -3.39379821	     -6.55398906
      0.58300000	      7.25379630	      2.89513292	      0.93738156	      0.58884503	      1.01671350	     -0.01790016	     13.60366228	     -5.37713519	     -6.14616647	      3.33238090	      1.16206309	      0.00000166	      0.00000000	    -24.53933943	      5.20715480	      3.62075361	      0.35243175	     10.12271003	      0.00000309	      0.00000000	    -25.30526328	     -3.18727093	     -6.96225955
      0.60000000	      7.24853881	      2.88230516	      0.98818678	      0.58954562	      1.01398252	     -0.01603657	     13.80665835	     -5.18381347	     -5.63338615	      3.30635180	      1.31794102	      0.00000152	      0.00000000	    -25.42044080	      4.96357244	      3.82504112	     -0.38706672	     10.75873886	      0.00000339	      0.00000000	    -25.15203403	     -2.94144773	     -6.71847000
      0.61700000	      7.19664094	      2.58551418	      1.25508458	      0.59020721	      1.01174930	     -0.01364385	     14.35653871	     -4.71255626	     -5.75814412	      1.70939040	      0.98952937	      0.00000132	      0.00000000	    -25.92632229	      4.31370283	      4.03886581	     -1.71188966	     11.52676837	      0.00000402	      0.00000000	    -25.10595468	     -2.36863158	     -6.70853181
      0.63300000	      7.14865276	      2.50884208	      1.79756480	      0.59120821	      1.01029681	     -0.01127060	     14.99377868	     -4.55475884	     -6.27727677	     -0.87018587	      0.23321906	      0.00000098	      0.00000000	    -26.21920050	      3.74687341	      4.61429565	     -3.42450856	     12.08647936	      0.00000460	      0.00000000	    -25.05105720	     -1.91343733	     -6.92760021
      0.65000000	      7.03453304	      2.30684079	      2.28501889	      0.59273170	      1.00916188	     -0.00827575	     15.72685647	     -4.27087975	     -6.88906144	     -3.94185883	     -0.86168233	      0.00000075	      0.00000000	    -26.31908703	      3.07178435	      5.08669957	     -5.37200368	     12.47339198	      0.00000536	      0.00000000	    -24.84045119	     -1.41141151	     -7.21194803
      0.66700000	      6.88509666	      2.17970514	      2.67078309	      0.59470781	      1.00869803	     -0.00574554	     16.38337072	     -4.12894315	     -7.33989650	     -7.02145944	     -2.04068803	      0.00000055	      0.00000000	    -26.13912752	      2.59917639	      5.47312578	     -7.79756243	     12.56023538	      0.00000615	      0.00000000	    -24.53698878	     -0.81279888	     -7.33563500
      0.68300000	      6.93099931	      2.07120723	      2.79869715	      0.59631708	      1.00897490	     -0.00291340	     17.04130524	     -3.99621790	     -7.46899619	    -10.60680191	     -2.64769066	      0.00000054	      0.00000000	    -25.75131073	      2.29389023	      5.56557856	    -10.96676187	     12.36947348	      0.00000726	      0.00000000	    -24.41321471	     -0.28851417	     -7.16025700
      0.70000000	      7.14993703	      1.76319030	      3.13350655	      0.59959821	      1.01028345	     -0.00054216	     17.16613467	     -3.73155973	     -7.72254280	    -13.92219240	     -2.67525077	      0.00000050	      0.00000000	    -25.26159888	      1.72078433	      5.62573267	    -14.71568194	     11.64789567	      0.00000853	      0.00000000	    -24.48315342	      0.47114095	     -7.18405470
      0.71700000	      7.39386963	      1.47428957	      3.39517936	      0.60253960	      1.01206711	      0.00184958	     16.75167362	     -3.44051127	     -7.91151950	    -16.24955992	     -2.58246255	      0.00000057	      0.00000000	    -24.17828108	      1.21981879	      5.32864362	    -19.45424512	     10.40897605	      0.00001029	      0.00000000	    -24.45518936	      1.32741949	     -7.24030068
      0.73300000	      7.41682373	      1.35479938	      3.59705406	      0.60460541	      1.01350541	      0.00486597	     16.56345983	     -3.29488687	     -8.05878458	    -18.52963190	     -2.06632298	      0.00000084	      0.00000000	    -21.89784440	      0.87654510	      4.55831388	    -25.70704535	      8.59692195	      0.00001251	      0.00000000	    -24.28138310	      1.76990783	     -7.08981661
      0.75000000	      7.39747575	      1.06830465	      3.72358756	      0.60706392	      1.01526260	      0.00796562	     15.91643441	     -2.90388106	     -8.30637618	    -19.88807675	     -1.39795628	      0.00000133	      0.00000000	    -19.18835659	      0.20845369	      3.09670983	    -32.21525262	      5.64895274	      0.00001466	      0.00000000	    -24.00764629	      2.34405617	     -7.27075426
      0.76700000	      7.19143604	      0.74241736	      3.88671743	      0.60879031	      1.01685885	      0.01090218	     15.30600437	     -2.44263457	     -8.53987102	    -20.88333705	     -0.43108273	      0.00000158	      0.00000000	    -15.74166166	     -0.82213060	      1.04258238	    -39.06286016	      1.71850628	      0.00001680	      0.00000000	    -23.65772355	      2.92998673	     -6.93530517
      0.78300000	      7.01532548	      0.19047653	      4.03412532	      0.60919086	      1.01849582	      0.01441161	     14.38940547	     -1.62767257	     -8.82291780	    -21.11533891	      0.42917204	      0.00000181	      0.00000000	    -12.11709104	     -2.45720058	     -1.28501073	    -45.57948396	     -2.54943343	      0.00001770	      0.00000000	    -23.40683803	      3.58863945	     -6.52368595
      0.80000000	      6.92936653	     -0.54535611	      4.00342886	      0.60958130	      1.02015728	      0.01812038	     13.35112520	     -0.52501792	     -8.89206673	    -21.23522681	      1.46322449	      0.00000174	      0.00000000	     -8.66806021	     -4.56898818	     -3.79882662	    -51.47931072	     -6.30447618	      0.00001747	      0.00000000	    -23.21904028	      4.35143852	     -5.70913568
      0.81700000	      6.96759208	     -1.31148680	      4.12175563	      0.60974046	      1.02250093	      0.02197194	     11.77697454	      0.67000052	     -9.07363172	    -20.49985121	      2.21840052	      0.00000166	      0.00000000	     -5.62632755	     -6.71998133	     -5.51618294	    -56.40576540	     -8.50598117	      0.00001559	      0.00000000	    -23.03453465	      5.13137202	     -5.50904564
      0.83300000	      7.00637499	     -1.73780224	      4.15380267	      0.60947183	      1.02517354	      0.02542575	     10.22788859	      1.50587668	     -9.04846833	    -19.79990543	      2.98735412	      0.00000153	      0.00000000	     -2.77477188	     -8.27224032	     -6.69608480	    -60.55685835	     -8.96373974	      0.00001320	      0.00000000	    -22.99008290	      5.45606833	     -4.73419928
      0.85000000	      7.09245521	     -2.03145655	      3.99980979	      0.60904531	      1.02820536	      0.02874224	      8.42792687	      2.23922796	     -8.79945053	    -18.65272487	      3.52038166	      0.00000137	      0.00000000	     -0.16266023	     -9.30192342	     -7.42349787	    -63.92378135	     -8.01819850	      0.00001079	      0.00000000	    -23.13079420	      5.53239529	     -4.02421167
      0.86700000	      7.25230114	     -2.02474042	      3.78307146	      0.60856616	      1.03146752	      0.03167899	      6.59021074	      2.61165345	     -8.45589811	    -17.64303980	      4.05625038	      0.00000145	      0.00000000	      2.18226031	     -9.69092190	     -7.86485864	    -66.42544957	     -6.44094371	      0.00000905	      0.00000000	    -23.22017281	      5.33287180	     -3.27892827
      0.88300000	      7.23935477	     -1.84760832	      3.62650426	      0.60748714	      1.03457546	      0.03426810	      4.73627638	      2.77918411	     -8.14340499	    -16.15453009	      4.36357182	      0.00000131	      0.00000000	      4.67750392	     -9.56768622	     -7.92754833	    -68.17851625	     -4.82826096	      0.00000816	      0.00000000	    -23.26335845	      4.95675289	     -2.92791288
